ffmpeg started on 2025-06-05 at 19:47:29
Report written to "D:\Convert\FFMetrics\reports\psnr_report-6.txt"
Log level: 32
Command line:
ffmpeg -hide_banner -nostdin -i "G:\\\xc0\xed\xe8\xec\xe5\\\xce\xed\xe3\xee\xe8\xed\xe3\xe8\\!_36_\xce\xf1\xe5\xed\xfc_2024\\DreamCast\\\xcd\xe0\xef\xe0\xe4\xe5\xed\xe8\xe5 \xee\xe4\xe8\xed\xee\xf7\xea\xe8 \xed\xe0 \xe8\xed\xee\xe9 \xec\xe8\xf0\\[DC] Hitoribocchi no Isekai Kouryaku - 08_Telegram_HEVC.mkv" -i "G:\\\xc0\xed\xe8\xec\xe5\\\xce\xed\xe3\xee\xe8\xed\xe3\xe8\\!_36_\xce\xf1\xe5\xed\xfc_2024\\DreamCast\\\xcd\xe0\xef\xe0\xe4\xe5\xed\xe8\xe5 \xee\xe4\xe8\xed\xee\xf7\xea\xe8 \xed\xe0 \xe8\xed\xee\xe9 \xec\xe8\xf0\\[DC] Hitoribocchi no Isekai Kouryaku - 08_Telegram.mp4" -lavfi "[0:v]settb=AVTB,setpts=PTS-STARTPTS,format=pix_fmts=yuv420p10,fps=24000/1001,scale=1920:1080:flags=bicubic[main];[1:v]settb=AVTB,setpts=PTS-STARTPTS,format=pix_fmts=yuv420p,fps=24000/1001,scale=1920:1080:flags=bicubic[ref];[main][ref]psnr=eof_action=endall:stats_file='D\\:/Convert/FFMetrics/logs/psnr_logfile-6.txt'" -f null -
Input #0, matroska,webm, from 'G:\Аниме\Онгоинги\!_36_Осень_2024\DreamCast\Нападение одиночки на иной мир\[DC] Hitoribocchi no Isekai Kouryaku - 08_Telegram_HEVC.mkv':
  Metadata:
    COMPATIBLE_BRANDS: isomiso2avc1mp41
    MAJOR_BRAND     : isom
    MINOR_VERSION   : 512
    ENCODER         : Lavf61.7.100
  Duration: 00:23:49.08, start: -0.021000, bitrate: 1507 kb/s
  Stream #0:0: Video: hevc (Main 10), yuv420p10le(tv, bt709, progressive), 1920x1080 [SAR 1:1 DAR 16:9], 23.98 fps, 23.98 tbr, 1k tbn (default)
      Metadata:
        HANDLER_NAME    : VideoHandler
        VENDOR_ID       : [0][0][0][0]
        ENCODER         : Lavc61.19.100 libx265
        BPS             : 1308992
        DURATION        : 00:23:48.969708333
        NUMBER_OF_FRAMES: 34261
        NUMBER_OF_BYTES : 233813711
        _STATISTICS_WRITING_APP: mkvpropedit v66.0.0 ('Josie') 64-bit
        _STATISTICS_WRITING_DATE_UTC: 2025-05-31 11:02:16
        _STATISTICS_TAGS: BPS DURATION NUMBER_OF_FRAMES NUMBER_OF_BYTES
  Stream #0:1: Audio: aac (LC), 48000 Hz, stereo, fltp (default)
      Metadata:
        HANDLER_NAME    : SoundHandler
        VENDOR_ID       : [0][0][0][0]
        ENCODER         : Lavc61.19.100 aac
        BPS             : 194234
        DURATION        : 00:23:49.077000000
        NUMBER_OF_FRAMES: 66989
        NUMBER_OF_BYTES : 34696966
        _STATISTICS_WRITING_APP: mkvpropedit v66.0.0 ('Josie') 64-bit
        _STATISTICS_WRITING_DATE_UTC: 2025-05-31 11:02:16
        _STATISTICS_TAGS: BPS DURATION NUMBER_OF_FRAMES NUMBER_OF_BYTES
Input #1, mov,mp4,m4a,3gp,3g2,mj2, from 'G:\Аниме\Онгоинги\!_36_Осень_2024\DreamCast\Нападение одиночки на иной мир\[DC] Hitoribocchi no Isekai Kouryaku - 08_Telegram.mp4':
  Metadata:
    major_brand     : isom
    minor_version   : 512
    compatible_brands: isomiso2avc1mp41
    encoder         : Lavf61.1.100
  Duration: 00:23:49.03, start: 0.000000, bitrate: 3690 kb/s
  Stream #1:0[0x1](und): Video: h264 (High) (avc1 / 0x31637661), yuv420p(tv, bt709, progressive), 1920x1080 [SAR 1:1 DAR 16:9], 3542 kb/s, 23.98 fps, 23.98 tbr, 24k tbn (default)
      Metadata:
        handler_name    : VideoHandler
        vendor_id       : [0][0][0][0]
        encoder         : Lavc61.3.100 h264_qsv
  Stream #1:1[0x2](und): Audio: aac (HE-AACv2) (mp4a / 0x6134706D), 48000 Hz, stereo, fltp, 144 kb/s (default)
      Metadata:
        handler_name    : SoundHandler
        vendor_id       : [0][0][0][0]
Stream mapping:
  Stream #0:0 (hevc) -> settb:default
  Stream #1:0 (h264) -> settb:default
  psnr:default -> Stream #0:0 (wrapped_avframe)
  Stream #0:1 -> #0:1 (aac (native) -> pcm_s16le (native))
Output #0, null, to 'pipe:':
  Metadata:
    COMPATIBLE_BRANDS: isomiso2avc1mp41
    MAJOR_BRAND     : isom
    MINOR_VERSION   : 512
    encoder         : Lavf61.7.100
  Stream #0:0: Video: wrapped_avframe, yuv420p10le(tv, bt709, progressive), 1920x1080 [SAR 1:1 DAR 16:9], q=2-31, 200 kb/s, 23.98 fps, 23.98 tbn
      Metadata:
        encoder         : Lavc61.19.100 wrapped_avframe
  Stream #0:1: Audio: pcm_s16le, 48000 Hz, stereo, s16, 1536 kb/s (default)
      Metadata:
        HANDLER_NAME    : SoundHandler
        VENDOR_ID       : [0][0][0][0]
        _STATISTICS_TAGS: BPS DURATION NUMBER_OF_FRAMES NUMBER_OF_BYTES
        BPS             : 194234
        DURATION        : 00:23:49.077000000
        NUMBER_OF_FRAMES: 66989
        NUMBER_OF_BYTES : 34696966
        _STATISTICS_WRITING_APP: mkvpropedit v66.0.0 ('Josie') 64-bit
        _STATISTICS_WRITING_DATE_UTC: 2025-05-31 11:02:16
        encoder         : Lavc61.19.100 pcm_s16le
frame=  169 fps=0.0 q=-0.0 size=N/A time=00:00:07.04 bitrate=N/A speed=13.9x    frame=  434 fps=421 q=-0.0 size=N/A time=00:00:18.10 bitrate=N/A speed=17.6x    frame=  672 fps=437 q=-0.0 size=N/A time=00:00:28.02 bitrate=N/A speed=18.2x    frame=  908 fps=441 q=-0.0 size=N/A time=00:00:37.87 bitrate=N/A speed=18.4x    frame= 1176 fps=457 q=-0.0 size=N/A time=00:00:49.04 bitrate=N/A speed=19.1x    frame= 1384 fps=447 q=-0.0 size=N/A time=00:00:57.72 bitrate=N/A speed=18.6x    frame= 1565 fps=434 q=-0.0 size=N/A time=00:01:05.27 bitrate=N/A speed=18.1x    frame= 1737 fps=422 q=-0.0 size=N/A time=00:01:12.44 bitrate=N/A speed=17.6x    frame= 1897 fps=409 q=-0.0 size=N/A time=00:01:19.12 bitrate=N/A speed=17.1x    frame= 2090 fps=405 q=-0.0 size=N/A time=00:01:27.17 bitrate=N/A speed=16.9x    frame= 2267 fps=399 q=-0.0 size=N/A time=00:01:34.55 bitrate=N/A speed=16.7x    frame= 2403 fps=388 q=-0.0 size=N/A time=00:01:40.22 bitrate=N/A speed=16.2x    frame= 2543 fps=378 q=-0.0 size=N/A time=00:01:46.06 bitrate=N/A speed=15.8x    frame= 2694 fps=373 q=-0.0 size=N/A time=00:01:52.36 bitrate=N/A speed=15.5x    frame= 2900 fps=374 q=-0.0 size=N/A time=00:02:00.95 bitrate=N/A speed=15.6x    frame= 3097 fps=375 q=-0.0 size=N/A time=00:02:09.17 bitrate=N/A speed=15.6x    frame= 3327 fps=379 q=-0.0 size=N/A time=00:02:18.76 bitrate=N/A speed=15.8x    frame= 3526 fps=380 q=-0.0 size=N/A time=00:02:27.06 bitrate=N/A speed=15.8x    frame= 3788 fps=386 q=-0.0 size=N/A time=00:02:37.99 bitrate=N/A speed=16.1x    frame= 4068 fps=394 q=-0.0 size=N/A time=00:02:49.66 bitrate=N/A speed=16.4x    frame= 4344 fps=401 q=-0.0 size=N/A time=00:03:01.18 bitrate=N/A speed=16.7x    frame= 4603 fps=406 q=-0.0 size=N/A time=00:03:11.98 bitrate=N/A speed=16.9x    frame= 4816 fps=406 q=-0.0 size=N/A time=00:03:20.86 bitrate=N/A speed=16.9x    frame= 5055 fps=408 q=-0.0 size=N/A time=00:03:30.83 bitrate=N/A speed=  17x    frame= 5249 fps=407 q=-0.0 size=N/A time=00:03:38.92 bitrate=N/A speed=  17x    frame= 5483 fps=409 q=-0.0 size=N/A time=00:03:48.68 bitrate=N/A speed=  17x    frame= 5711 fps=410 q=-0.0 size=N/A time=00:03:58.19 bitrate=N/A speed=17.1x    frame= 5897 fps=408 q=-0.0 size=N/A time=00:04:05.95 bitrate=N/A speed=  17x    frame= 6123 fps=409 q=-0.0 size=N/A time=00:04:15.38 bitrate=N/A speed=17.1x    frame= 6372 fps=411 q=-0.0 size=N/A time=00:04:25.76 bitrate=N/A speed=17.2x    frame= 6622 fps=414 q=-0.0 size=N/A time=00:04:36.19 bitrate=N/A speed=17.3x    frame= 6842 fps=414 q=-0.0 size=N/A time=00:04:45.36 bitrate=N/A speed=17.3x    frame= 7086 fps=416 q=-0.0 size=N/A time=00:04:55.54 bitrate=N/A speed=17.4x    frame= 7346 fps=419 q=-0.0 size=N/A time=00:05:06.38 bitrate=N/A speed=17.5x    frame= 7578 fps=420 q=-0.0 size=N/A time=00:05:16.06 bitrate=N/A speed=17.5x    frame= 7809 fps=420 q=-0.0 size=N/A time=00:05:25.70 bitrate=N/A speed=17.5x    frame= 8067 fps=422 q=-0.0 size=N/A time=00:05:36.46 bitrate=N/A speed=17.6x    frame= 8282 fps=423 q=-0.0 size=N/A time=00:05:45.42 bitrate=N/A speed=17.6x    frame= 8502 fps=423 q=-0.0 size=N/A time=00:05:54.60 bitrate=N/A speed=17.6x    frame= 8698 fps=421 q=-0.0 size=N/A time=00:06:02.77 bitrate=N/A speed=17.6x    frame= 8948 fps=423 q=-0.0 size=N/A time=00:06:13.20 bitrate=N/A speed=17.6x    frame= 9198 fps=424 q=-0.0 size=N/A time=00:06:23.63 bitrate=N/A speed=17.7x    frame= 9427 fps=425 q=-0.0 size=N/A time=00:06:33.18 bitrate=N/A speed=17.7x    frame= 9692 fps=427 q=-0.0 size=N/A time=00:06:44.23 bitrate=N/A speed=17.8x    frame= 9860 fps=424 q=-0.0 size=N/A time=00:06:51.24 bitrate=N/A speed=17.7x    frame=10000 fps=421 q=-0.0 size=N/A time=00:06:57.08 bitrate=N/A speed=17.6x    frame=10192 fps=420 q=-0.0 size=N/A time=00:07:05.09 bitrate=N/A speed=17.5x    frame=10412 fps=420 q=-0.0 size=N/A time=00:07:14.26 bitrate=N/A speed=17.5x    frame=10666 fps=422 q=-0.0 size=N/A time=00:07:24.86 bitrate=N/A speed=17.6x    frame=10852 fps=420 q=-0.0 size=N/A time=00:07:32.61 bitrate=N/A speed=17.5x    frame=11040 fps=419 q=-0.0 size=N/A time=00:07:40.46 bitrate=N/A speed=17.5x    frame=11265 fps=419 q=-0.0 size=N/A time=00:07:49.84 bitrate=N/A speed=17.5x    frame=11484 fps=420 q=-0.0 size=N/A time=00:07:58.97 bitrate=N/A speed=17.5x    frame=11722 fps=420 q=-0.0 size=N/A time=00:08:08.90 bitrate=N/A speed=17.5x    frame=11932 fps=420 q=-0.0 size=N/A time=00:08:17.66 bitrate=N/A speed=17.5x    frame=12199 fps=422 q=-0.0 size=N/A time=00:08:28.79 bitrate=N/A speed=17.6x    frame=12419 fps=422 q=-0.0 size=N/A time=00:08:37.97 bitrate=N/A speed=17.6x    frame=12618 fps=421 q=-0.0 size=N/A time=00:08:46.27 bitrate=N/A speed=17.6x    frame=12878 fps=423 q=-0.0 size=N/A time=00:08:57.11 bitrate=N/A speed=17.6x    frame=13122 fps=423 q=-0.0 size=N/A time=00:09:07.29 bitrate=N/A speed=17.7x    frame=13363 fps=424 q=-0.0 size=N/A time=00:09:17.34 bitrate=N/A speed=17.7x    frame=13627 fps=426 q=-0.0 size=N/A time=00:09:28.35 bitrate=N/A speed=17.8x    frame=13845 fps=426 q=-0.0 size=N/A time=00:09:37.45 bitrate=N/A speed=17.7x    frame=14121 fps=427 q=-0.0 size=N/A time=00:09:48.96 bitrate=N/A speed=17.8x    frame=14399 fps=429 q=-0.0 size=N/A time=00:10:00.55 bitrate=N/A speed=17.9x    frame=14664 fps=430 q=-0.0 size=N/A time=00:10:11.61 bitrate=N/A speed=17.9x    frame=14932 fps=432 q=-0.0 size=N/A time=00:10:22.78 bitrate=N/A speed=  18x    frame=15186 fps=433 q=-0.0 size=N/A time=00:10:33.38 bitrate=N/A speed=  18x    frame=15396 fps=432 q=-0.0 size=N/A time=00:10:42.14 bitrate=N/A speed=  18x    frame=15633 fps=433 q=-0.0 size=N/A time=00:10:52.02 bitrate=N/A speed=  18x    frame=15907 fps=434 q=-0.0 size=N/A time=00:11:03.45 bitrate=N/A speed=18.1x    frame=16163 fps=435 q=-0.0 size=N/A time=00:11:14.13 bitrate=N/A speed=18.1x    frame=16405 fps=435 q=-0.0 size=N/A time=00:11:24.22 bitrate=N/A speed=18.2x    frame=16578 fps=434 q=-0.0 size=N/A time=00:11:31.44 bitrate=N/A speed=18.1x    frame=16841 fps=435 q=-0.0 size=N/A time=00:11:42.41 bitrate=N/A speed=18.1x    frame=17091 fps=436 q=-0.0 size=N/A time=00:11:52.83 bitrate=N/A speed=18.2x    frame=17289 fps=435 q=-0.0 size=N/A time=00:12:01.09 bitrate=N/A speed=18.1x    frame=17535 fps=436 q=-0.0 size=N/A time=00:12:11.35 bitrate=N/A speed=18.2x    frame=17802 fps=437 q=-0.0 size=N/A time=00:12:22.49 bitrate=N/A speed=18.2x    frame=18047 fps=437 q=-0.0 size=N/A time=00:12:32.71 bitrate=N/A speed=18.2x    frame=18264 fps=437 q=-0.0 size=N/A time=00:12:41.76 bitrate=N/A speed=18.2x    frame=18469 fps=436 q=-0.0 size=N/A time=00:12:50.31 bitrate=N/A speed=18.2x    frame=18706 fps=437 q=-0.0 size=N/A time=00:13:00.19 bitrate=N/A speed=18.2x    frame=18851 fps=435 q=-0.0 size=N/A time=00:13:06.24 bitrate=N/A speed=18.1x    frame=19094 fps=435 q=-0.0 size=N/A time=00:13:16.37 bitrate=N/A speed=18.2x    frame=19355 fps=436 q=-0.0 size=N/A time=00:13:27.26 bitrate=N/A speed=18.2x    frame=19613 fps=437 q=-0.0 size=N/A time=00:13:38.02 bitrate=N/A speed=18.2x    frame=19834 fps=437 q=-0.0 size=N/A time=00:13:47.24 bitrate=N/A speed=18.2x    frame=20080 fps=437 q=-0.0 size=N/A time=00:13:57.50 bitrate=N/A speed=18.2x    frame=20300 fps=437 q=-0.0 size=N/A time=00:14:06.67 bitrate=N/A speed=18.2x    frame=20478 fps=436 q=-0.0 size=N/A time=00:14:14.10 bitrate=N/A speed=18.2x    frame=20678 fps=435 q=-0.0 size=N/A time=00:14:22.44 bitrate=N/A speed=18.2x    frame=20924 fps=436 q=-0.0 size=N/A time=00:14:32.70 bitrate=N/A speed=18.2x    frame=21193 fps=437 q=-0.0 size=N/A time=00:14:43.92 bitrate=N/A speed=18.2x    frame=21433 fps=437 q=-0.0 size=N/A time=00:14:53.93 bitrate=N/A speed=18.2x    frame=21677 fps=437 q=-0.0 size=N/A time=00:15:04.11 bitrate=N/A speed=18.2x    frame=21945 fps=438 q=-0.0 size=N/A time=00:15:15.28 bitrate=N/A speed=18.3x    frame=22169 fps=438 q=-0.0 size=N/A time=00:15:24.63 bitrate=N/A speed=18.3x    frame=22380 fps=438 q=-0.0 size=N/A time=00:15:33.43 bitrate=N/A speed=18.3x    frame=22622 fps=438 q=-0.0 size=N/A time=00:15:43.52 bitrate=N/A speed=18.3x    frame=22846 fps=438 q=-0.0 size=N/A time=00:15:52.86 bitrate=N/A speed=18.3x    frame=23061 fps=438 q=-0.0 size=N/A time=00:16:01.83 bitrate=N/A speed=18.3x    frame=23256 fps=437 q=-0.0 size=N/A time=00:16:09.96 bitrate=N/A speed=18.2x    frame=23453 fps=437 q=-0.0 size=N/A time=00:16:18.18 bitrate=N/A speed=18.2x    frame=23668 fps=437 q=-0.0 size=N/A time=00:16:27.15 bitrate=N/A speed=18.2x    frame=23916 fps=437 q=-0.0 size=N/A time=00:16:37.49 bitrate=N/A speed=18.2x    frame=24163 fps=437 q=-0.0 size=N/A time=00:16:47.79 bitrate=N/A speed=18.2x    frame=24376 fps=437 q=-0.0 size=N/A time=00:16:56.68 bitrate=N/A speed=18.2x    frame=24586 fps=437 q=-0.0 size=N/A time=00:17:05.44 bitrate=N/A speed=18.2x    frame=24799 fps=437 q=-0.0 size=N/A time=00:17:14.32 bitrate=N/A speed=18.2x    frame=25030 fps=437 q=-0.0 size=N/A time=00:17:23.95 bitrate=N/A speed=18.2x    frame=25301 fps=438 q=-0.0 size=N/A time=00:17:35.26 bitrate=N/A speed=18.3x    frame=25497 fps=437 q=-0.0 size=N/A time=00:17:43.43 bitrate=N/A speed=18.2x    frame=25685 fps=437 q=-0.0 size=N/A time=00:17:51.27 bitrate=N/A speed=18.2x    frame=25937 fps=437 q=-0.0 size=N/A time=00:18:01.78 bitrate=N/A speed=18.2x    frame=26182 fps=437 q=-0.0 size=N/A time=00:18:12.00 bitrate=N/A speed=18.2x    frame=26432 fps=438 q=-0.0 size=N/A time=00:18:22.43 bitrate=N/A speed=18.3x    frame=26665 fps=438 q=-0.0 size=N/A time=00:18:32.15 bitrate=N/A speed=18.3x    frame=26858 fps=437 q=-0.0 size=N/A time=00:18:40.20 bitrate=N/A speed=18.2x    frame=27045 fps=437 q=-0.0 size=N/A time=00:18:48.00 bitrate=N/A speed=18.2x    frame=27226 fps=436 q=-0.0 size=N/A time=00:18:55.55 bitrate=N/A speed=18.2x    frame=27440 fps=436 q=-0.0 size=N/A time=00:19:04.47 bitrate=N/A speed=18.2x    frame=27670 fps=436 q=-0.0 size=N/A time=00:19:14.06 bitrate=N/A speed=18.2x    frame=27935 fps=436 q=-0.0 size=N/A time=00:19:25.12 bitrate=N/A speed=18.2x    frame=28200 fps=437 q=-0.0 size=N/A time=00:19:36.17 bitrate=N/A speed=18.2x    frame=28468 fps=438 q=-0.0 size=N/A time=00:19:47.35 bitrate=N/A speed=18.3x    frame=28722 fps=438 q=-0.0 size=N/A time=00:19:57.94 bitrate=N/A speed=18.3x    frame=28942 fps=438 q=-0.0 size=N/A time=00:20:07.12 bitrate=N/A speed=18.3x    frame=29154 fps=438 q=-0.0 size=N/A time=00:20:15.96 bitrate=N/A speed=18.3x    frame=29381 fps=438 q=-0.0 size=N/A time=00:20:25.43 bitrate=N/A speed=18.3x    frame=29629 fps=438 q=-0.0 size=N/A time=00:20:35.77 bitrate=N/A speed=18.3x    frame=29896 fps=439 q=-0.0 size=N/A time=00:20:46.91 bitrate=N/A speed=18.3x    frame=30137 fps=439 q=-0.0 size=N/A time=00:20:56.96 bitrate=N/A speed=18.3x    frame=30329 fps=439 q=-0.0 size=N/A time=00:21:04.97 bitrate=N/A speed=18.3x    frame=30537 fps=438 q=-0.0 size=N/A time=00:21:13.64 bitrate=N/A speed=18.3x    frame=30740 fps=438 q=-0.0 size=N/A time=00:21:22.11 bitrate=N/A speed=18.3x    frame=30970 fps=438 q=-0.0 size=N/A time=00:21:31.70 bitrate=N/A speed=18.3x    frame=31197 fps=438 q=-0.0 size=N/A time=00:21:41.17 bitrate=N/A speed=18.3x    frame=31403 fps=438 q=-0.0 size=N/A time=00:21:49.76 bitrate=N/A speed=18.3x    frame=31584 fps=437 q=-0.0 size=N/A time=00:21:57.31 bitrate=N/A speed=18.2x    frame=31783 fps=437 q=-0.0 size=N/A time=00:22:05.61 bitrate=N/A speed=18.2x    frame=32035 fps=437 q=-0.0 size=N/A time=00:22:16.12 bitrate=N/A speed=18.2x    frame=32232 fps=437 q=-0.0 size=N/A time=00:22:24.38 bitrate=N/A speed=18.2x    frame=32452 fps=437 q=-0.0 size=N/A time=00:22:33.51 bitrate=N/A speed=18.2x    frame=32663 fps=436 q=-0.0 size=N/A time=00:22:42.31 bitrate=N/A speed=18.2x    frame=32870 fps=436 q=-0.0 size=N/A time=00:22:50.95 bitrate=N/A speed=18.2x    frame=33060 fps=436 q=-0.0 size=N/A time=00:22:58.87 bitrate=N/A speed=18.2x    frame=33223 fps=435 q=-0.0 size=N/A time=00:23:05.67 bitrate=N/A speed=18.1x    frame=33394 fps=434 q=-0.0 size=N/A time=00:23:12.80 bitrate=N/A speed=18.1x    frame=33625 fps=434 q=-0.0 size=N/A time=00:23:22.44 bitrate=N/A speed=18.1x    frame=33885 fps=435 q=-0.0 size=N/A time=00:23:33.28 bitrate=N/A speed=18.1x    frame=34113 fps=435 q=-0.0 size=N/A time=00:23:42.79 bitrate=N/A speed=18.1x    [Parsed_psnr_10 @ 0000028c9961a480] PSNR y:48.073653 u:50.285353 v:49.975665 average:48.656639 min:37.090177 max:inf
[out#0/null @ 0000028c99584ac0] video:14722KiB audio:267956KiB subtitle:0KiB other streams:0KiB global headers:0KiB muxing overhead: unknown
frame=34261 fps=435 q=-0.0 Lsize=N/A time=00:23:48.96 bitrate=N/A speed=18.1x    
